<svg width="18" height="18" viewBox="0 0 18 18" fill="none" xmlns="http://www.w3.org/2000/svg">
<path d="M1.6875 9C1.6875 13.0395 4.96055 16.3125 9 16.3125C13.0395 16.3125 16.3125 13.0395 16.3125 9C16.3125 4.96055 13.0395 1.6875 9 1.6875C4.96055 1.6875 1.6875 4.96055 1.6875 9ZM10.2832 9L7.40391 6.14883C7.14023 5.88516 7.14023 5.45273 7.40391 5.18906C7.66758 4.92539 8.1 4.92539 8.36367 5.18906L11.7176 8.55352C11.9742 8.81016 11.9812 9.225 11.7387 9.48867L8.43398 12.8039C8.30039 12.9375 8.12812 13.0043 7.95234 13.0043C7.78008 13.0043 7.6043 12.9375 7.47422 12.8074C7.21055 12.5437 7.20703 12.1148 7.47422 11.8477L10.2832 9Z" fill="black"/>
</svg>
