<svg width="26" height="25" viewBox="0 0 26 25" fill="none" xmlns="http://www.w3.org/2000/svg">
<path d="M3.68782 23.6981C3.31282 23.6981 2.94823 23.6043 2.63573 23.4168C1.93781 23.0106 1.54199 22.1981 1.54199 21.1877V9.35435C1.54199 7.1356 3.34406 5.3335 5.56281 5.3335H13.667C15.8858 5.3335 17.6878 7.1356 17.6878 9.35435V21.1877C17.6878 22.1981 17.292 23.0002 16.5941 23.4168C15.8962 23.8231 15.0003 23.7814 14.1149 23.2918L10.0212 21.0106C9.82326 20.896 9.40656 20.896 9.20864 21.0106L5.1149 23.2918C4.63573 23.5627 4.14616 23.6981 3.68782 23.6981ZM5.57324 6.90642C4.21907 6.90642 3.11492 8.01057 3.11492 9.36474V21.1981C3.11492 21.6252 3.23992 21.9585 3.43783 22.0731C3.63575 22.1877 3.98993 22.1356 4.36493 21.9272L8.45867 19.646C9.12534 19.2814 10.1253 19.2814 10.792 19.646L14.8857 21.9272C15.2607 22.1356 15.6045 22.1877 15.8128 22.0731C16.0108 21.9585 16.1358 21.6252 16.1358 21.1981V9.36474C16.1358 8.01057 15.0316 6.90642 13.6774 6.90642H5.57324Z" fill="#898989"/>
<path d="M15.5518 23.6977C15.0934 23.6977 14.6143 23.5623 14.1247 23.3019L10.0309 21.0206C9.83302 20.9165 9.4059 20.9165 9.20798 21.0206L5.12467 23.3019C4.23925 23.7915 3.333 23.8331 2.6455 23.4269C1.94758 23.0206 1.55176 22.2081 1.55176 21.2081V9.37482C1.55176 7.15607 3.35383 5.354 5.57258 5.354H13.6768C15.8955 5.354 17.6976 7.15607 17.6976 9.37482V21.2081C17.6976 22.2081 17.3018 23.0206 16.6039 23.4269C16.2914 23.604 15.9372 23.6977 15.5518 23.6977ZM9.62467 19.3748C10.0413 19.3748 10.4476 19.4686 10.7913 19.6561L14.8851 21.9373C15.2601 22.1457 15.6143 22.1977 15.8122 22.0727C16.0101 21.9582 16.1351 21.6248 16.1351 21.1977V9.3644C16.1351 8.01023 15.0309 6.90608 13.6768 6.90608H5.57258C4.21841 6.90608 3.11426 8.01023 3.11426 9.3644V21.1977C3.11426 21.6248 3.23926 21.9582 3.43717 22.0727C3.63509 22.1873 3.98927 22.1352 4.36427 21.9269L8.45801 19.6456C8.79135 19.4686 9.20801 19.3748 9.62467 19.3748Z" fill="#898989"/>
<path d="M21.8018 19.6562C21.3434 19.6562 20.8643 19.5208 20.3747 19.2604L16.5309 17.1146C16.2809 16.9791 16.1351 16.7187 16.1351 16.4375V9.37499C16.1351 8.02082 15.0309 6.91667 13.6768 6.91667H8.58301C8.15592 6.91667 7.80176 6.56251 7.80176 6.13542V5.33332C7.80176 3.11457 9.60383 1.3125 11.8226 1.3125H19.9268C22.1455 1.3125 23.9476 3.11457 23.9476 5.33332V17.1667C23.9476 18.1667 23.5518 18.9791 22.8539 19.3854C22.5414 19.5625 22.1872 19.6562 21.8018 19.6562ZM17.6976 15.9687L21.1351 17.8958C21.5101 18.1041 21.8538 18.1562 22.0622 18.0312C22.2705 17.9062 22.3851 17.5833 22.3851 17.1562V5.32289C22.3851 3.96872 21.2809 2.86457 19.9268 2.86457H11.8226C10.4684 2.86457 9.36426 3.96872 9.36426 5.32289V5.34374H13.6768C15.8955 5.34374 17.6976 7.14581 17.6976 9.36456V15.9687Z" fill="#898989"/>
</svg>
