<svg width="25" height="25" viewBox="0 0 25 25" fill="none" xmlns="http://www.w3.org/2000/svg">
<path d="M0 3C0 1.34315 1.34315 0 3 0H22C23.6569 0 25 1.34315 25 3V22C25 23.6569 23.6569 25 22 25H3C1.34315 25 0 23.6569 0 22V3Z" fill="#BABFC9"/>
<rect x="7" y="8" width="10" height="10" fill="#FB9722"/>
<path d="M4.6875 13C4.6875 17.0395 7.96055 20.3125 12 20.3125C16.0395 20.3125 19.3125 17.0395 19.3125 13C19.3125 8.96055 16.0395 5.6875 12 5.6875C7.96055 5.6875 4.6875 8.96055 4.6875 13ZM13.2832 13L10.4039 10.1488C10.1402 9.88516 10.1402 9.45273 10.4039 9.18906C10.6676 8.92539 11.1 8.92539 11.3637 9.18906L14.7176 12.5535C14.9742 12.8102 14.9812 13.225 14.7387 13.4887L11.434 16.8039C11.3004 16.9375 11.1281 17.0043 10.9523 17.0043C10.7801 17.0043 10.6043 16.9375 10.4742 16.8074C10.2105 16.5437 10.207 16.1148 10.4742 15.8477L13.2832 13Z" fill="#BABFC9"/>
</svg>
