<svg width="25" height="25" viewBox="0 0 25 25" fill="none" xmlns="http://www.w3.org/2000/svg">
<path d="M0 3C0 1.34315 1.34315 0 3 0H22C23.6569 0 25 1.34315 25 3V22C25 23.6569 23.6569 25 22 25H3C1.34315 25 0 23.6569 0 22V3Z" fill="#BABFC9"/>
<rect x="7" y="8" width="10" height="10" fill="#FB9722"/>
<path d="M19.3125 13C19.3125 8.96055 16.0395 5.6875 12 5.6875C7.96055 5.6875 4.6875 8.96055 4.6875 13C4.6875 17.0395 7.96055 20.3125 12 20.3125C16.0395 20.3125 19.3125 17.0395 19.3125 13ZM10.7168 13L13.5961 15.8512C13.8598 16.1148 13.8598 16.5473 13.5961 16.8109C13.3324 17.0746 12.9 17.0746 12.6363 16.8109L9.28242 13.4465C9.02578 13.1898 9.01875 12.775 9.26133 12.5113L12.566 9.19609C12.6996 9.0625 12.8719 8.9957 13.0477 8.9957C13.2199 8.9957 13.3957 9.0625 13.5258 9.19258C13.7895 9.45625 13.793 9.88516 13.5258 10.1523L10.7168 13Z" fill="#BABFC9"/>
</svg>
