<svg width="39" height="39" viewBox="0 0 39 39" fill="none" xmlns="http://www.w3.org/2000/svg">
<path d="M5.24701 36.5206C4.67701 36.5206 4.12283 36.3781 3.64783 36.0931C2.587 35.4756 1.98535 34.2406 1.98535 32.7048V14.7181C1.98535 11.3456 4.72449 8.60645 8.09699 8.60645H20.4154C23.7879 8.60645 26.527 11.3456 26.527 14.7181V32.7048C26.527 34.2406 25.9254 35.4598 24.8645 36.0931C23.8037 36.7106 22.442 36.6473 21.0962 35.9031L14.8737 32.4356C14.5729 32.2615 13.9395 32.2615 13.6387 32.4356L7.41617 35.9031C6.68784 36.3148 5.94368 36.5206 5.24701 36.5206ZM8.11284 10.9973C6.05451 10.9973 4.3762 12.6756 4.3762 14.7339V32.7206C4.3762 33.3698 4.5662 33.8765 4.86703 34.0506C5.16786 34.2248 5.70622 34.1456 6.27622 33.8289L12.4987 30.3614C13.512 29.8073 15.032 29.8073 16.0454 30.3614L22.2678 33.8289C22.8378 34.1456 23.3604 34.2248 23.677 34.0506C23.9779 33.8765 24.1679 33.3698 24.1679 32.7206V14.7339C24.1679 12.6756 22.4896 10.9973 20.4312 10.9973H8.11284Z" fill="#FB9722"/>
<path d="M23.281 36.5207C22.5843 36.5207 21.856 36.3148 21.1118 35.919L14.8893 32.4515C14.5885 32.2931 13.9393 32.2931 13.6384 32.4515L7.4318 35.919C6.08596 36.6632 4.70846 36.7265 3.66346 36.109C2.60262 35.4915 2.00098 34.2565 2.00098 32.7365V14.7498C2.00098 11.3773 4.74012 8.63818 8.11262 8.63818H20.431C23.8035 8.63818 26.5426 11.3773 26.5426 14.7498V32.7365C26.5426 34.2565 25.941 35.4915 24.8802 36.109C24.4052 36.3781 23.8668 36.5207 23.281 36.5207ZM14.2718 29.9498C14.9051 29.9498 15.5226 30.0923 16.0451 30.3773L22.2676 33.8448C22.8376 34.1615 23.376 34.2407 23.6768 34.0507C23.9776 33.8765 24.1676 33.3698 24.1676 32.7207V14.734C24.1676 12.6756 22.4893 10.9973 20.431 10.9973H8.11262C6.05429 10.9973 4.37598 12.6756 4.37598 14.734V32.7207C4.37598 33.3698 4.56597 33.8765 4.86681 34.0507C5.16764 34.2248 5.706 34.1456 6.276 33.829L12.4985 30.3615C13.0052 30.0923 13.6385 29.9498 14.2718 29.9498Z" fill="#FB9722"/>
<path d="M32.781 30.3776C32.0843 30.3776 31.356 30.1718 30.6118 29.7759L24.7693 26.5143C24.3893 26.3084 24.1676 25.9126 24.1676 25.4851V14.7501C24.1676 12.6918 22.4893 11.0135 20.431 11.0135H12.6885C12.0393 11.0135 11.501 10.4751 11.501 9.82596V8.60676C11.501 5.23426 14.2401 2.49512 17.6126 2.49512H29.931C33.3035 2.49512 36.0426 5.23426 36.0426 8.60676V26.5935C36.0426 28.1135 35.441 29.3484 34.3802 29.9659C33.9052 30.2351 33.3668 30.3776 32.781 30.3776ZM26.5426 24.7726L31.7676 27.7018C32.3376 28.0184 32.8601 28.0976 33.1768 27.9076C33.4935 27.7176 33.6676 27.2268 33.6676 26.5776V8.59091C33.6676 6.53258 31.9893 4.85427 29.931 4.85427H17.6126C15.5543 4.85427 13.876 6.53258 13.876 8.59091V8.62261H20.431C23.8035 8.62261 26.5426 11.3618 26.5426 14.7343V24.7726Z" fill="#FB9722"/>
</svg>
