<svg width="48" height="48" viewBox="0 0 48 48" fill="none" xmlns="http://www.w3.org/2000/svg">
<path d="M24.0435 0.180176C10.8149 0.180176 0.0878906 11.0881 0.0878906 24.5447C0.0878906 35.3098 6.95189 44.4428 16.4702 47.6646C17.6674 47.8901 18.1069 47.136 18.1069 46.4925C18.1069 45.9115 18.0847 43.9921 18.0744 41.9562C11.4099 43.4301 10.0037 39.0815 10.0037 39.0815C8.91394 36.2652 7.34382 35.5164 7.34382 35.5164C5.17034 34.0042 7.50766 34.0352 7.50766 34.0352C9.91321 34.2067 11.1799 36.546 11.1799 36.546C13.3165 40.2709 16.784 39.194 18.151 38.5715C18.366 36.9971 18.9868 35.9215 19.6719 35.3134C14.351 34.6973 8.75764 32.6081 8.75764 23.2722C8.75764 20.6121 9.69344 18.4386 11.2259 16.7323C10.9771 16.1182 10.1572 13.6405 11.4579 10.2844C11.4579 10.2844 13.4696 9.62952 18.0474 12.7819C19.9583 12.242 22.0076 11.9713 24.0435 11.962C26.0793 11.9713 28.1302 12.242 30.0447 12.7819C34.6169 9.62952 36.6258 10.2844 36.6258 10.2844C37.9297 13.6405 37.1094 16.1182 36.8606 16.7323C38.3966 18.4386 39.3261 20.6121 39.3261 23.2722C39.3261 32.6303 33.722 34.6909 28.3877 35.2941C29.2469 36.0502 30.0125 37.5329 30.0125 39.8061C30.0125 43.0658 29.9848 45.6896 29.9848 46.4925C29.9848 47.1409 30.416 47.9006 31.6302 47.6613C41.1434 44.436 47.9986 35.3062 47.9986 24.5447C47.9986 11.0881 37.2732 0.180176 24.0435 0.180176Z" fill="#B2B5BB" fill-opacity="0.8"/>
<path d="M9.16109 35.1626C9.10833 35.284 8.92109 35.3199 8.75051 35.2368C8.57676 35.1573 8.47918 34.9923 8.53551 34.8709C8.58708 34.7462 8.77471 34.7119 8.94807 34.7946C9.12222 34.8745 9.22139 35.0411 9.16109 35.1626Z" fill="#B2B5BB" fill-opacity="0.8"/>
<path d="M10.1318 36.263C10.0175 36.3707 9.79419 36.3207 9.64266 36.1504C9.48596 35.9806 9.45661 35.7534 9.57244 35.6441C9.69026 35.5363 9.90685 35.5868 10.0639 35.7566C10.2206 35.9285 10.2512 36.1541 10.1318 36.263Z" fill="#B2B5BB" fill-opacity="0.8"/>
<path d="M11.0755 37.6664C10.9287 37.7701 10.6887 37.6729 10.5404 37.4562C10.3936 37.2396 10.3936 36.9797 10.5435 36.8756C10.6923 36.7715 10.9287 36.8651 11.0791 37.0802C11.2254 37.3001 11.2254 37.5603 11.0755 37.6664Z" fill="#B2B5BB" fill-opacity="0.8"/>
<path d="M12.3698 39.0219C12.2385 39.1692 11.9588 39.1297 11.7541 38.9287C11.5446 38.7322 11.4863 38.4534 11.618 38.3062C11.7509 38.1585 12.0322 38.2001 12.2385 38.3994C12.4463 38.5955 12.5098 38.8763 12.3698 39.0219Z" fill="#B2B5BB" fill-opacity="0.8"/>
<path d="M14.1554 39.8095C14.0975 40.0004 13.8281 40.0871 13.5568 40.006C13.2858 39.9225 13.1085 39.699 13.1632 39.5061C13.2196 39.314 13.4901 39.2237 13.7634 39.3104C14.034 39.3935 14.2117 39.6154 14.1554 39.8095Z" fill="#B2B5BB" fill-opacity="0.8"/>
<path d="M16.1154 39.9552C16.1221 40.1561 15.892 40.3228 15.6072 40.326C15.3208 40.3329 15.0891 40.1703 15.0859 39.9726C15.0859 39.7696 15.3109 39.6046 15.5973 39.5998C15.8821 39.5941 16.1154 39.7555 16.1154 39.9552Z" fill="#B2B5BB" fill-opacity="0.8"/>
<path d="M17.9403 39.6394C17.9744 39.8355 17.7765 40.0368 17.4936 40.0901C17.2156 40.1422 16.9581 40.0211 16.9228 39.8266C16.8883 39.6257 17.0898 39.4244 17.3675 39.3723C17.6507 39.3223 17.9042 39.4401 17.9403 39.6394Z" fill="#B2B5BB" fill-opacity="0.8"/>
</svg>
