<svg width="17" height="17" viewBox="0 0 17 17" fill="none" xmlns="http://www.w3.org/2000/svg">
<path d="M0.521484 8.5C0.521484 8.71217 0.626841 8.91566 0.814378 9.06569C1.00191 9.21571 1.25627 9.3 1.52148 9.3H9.11149L6.81148 11.132C6.71776 11.2064 6.64336 11.2949 6.59259 11.3923C6.54182 11.4898 6.51569 11.5944 6.51569 11.7C6.51569 11.8056 6.54182 11.9102 6.59259 12.0077C6.64336 12.1052 6.71776 12.1936 6.81148 12.268C6.90445 12.343 7.01505 12.4025 7.13691 12.4431C7.25877 12.4837 7.38947 12.5046 7.52148 12.5046C7.6535 12.5046 7.7842 12.4837 7.90606 12.4431C8.02792 12.4025 8.13852 12.343 8.23148 12.268L12.2315 9.068C12.3225 8.99192 12.3939 8.9022 12.4415 8.804C12.5415 8.60923 12.5415 8.39077 12.4415 8.196C12.3939 8.0978 12.3225 8.00808 12.2315 7.932L8.23148 4.732C8.13825 4.65741 8.02756 4.59824 7.90573 4.55787C7.78391 4.5175 7.65334 4.49673 7.52148 4.49673C7.38963 4.49673 7.25906 4.5175 7.13723 4.55787C7.01541 4.59824 6.90472 4.65741 6.81148 4.732C6.71825 4.80659 6.64428 4.89514 6.59382 4.9926C6.54336 5.09006 6.51739 5.19451 6.51739 5.3C6.51739 5.40549 6.54336 5.50994 6.59382 5.6074C6.64428 5.70486 6.71825 5.79341 6.81148 5.868L9.11149 7.7H1.52148C1.25627 7.7 1.00191 7.78429 0.814378 7.93432C0.626841 8.08434 0.521484 8.28783 0.521484 8.5ZM13.5215 0.5H3.52148C2.72584 0.5 1.96277 0.752857 1.40016 1.20294C0.837555 1.65303 0.521484 2.26348 0.521484 2.9V5.3C0.521484 5.51217 0.626841 5.71566 0.814378 5.86569C1.00191 6.01571 1.25627 6.1 1.52148 6.1C1.7867 6.1 2.04105 6.01571 2.22859 5.86569C2.41613 5.71566 2.52148 5.51217 2.52148 5.3V2.9C2.52148 2.68783 2.62684 2.48434 2.81438 2.33431C3.00191 2.18429 3.25627 2.1 3.52148 2.1H13.5215C13.7867 2.1 14.0411 2.18429 14.2286 2.33431C14.4161 2.48434 14.5215 2.68783 14.5215 2.9V14.1C14.5215 14.3122 14.4161 14.5157 14.2286 14.6657C14.0411 14.8157 13.7867 14.9 13.5215 14.9H3.52148C3.25627 14.9 3.00191 14.8157 2.81438 14.6657C2.62684 14.5157 2.52148 14.3122 2.52148 14.1V11.7C2.52148 11.4878 2.41613 11.2843 2.22859 11.1343C2.04105 10.9843 1.7867 10.9 1.52148 10.9C1.25627 10.9 1.00191 10.9843 0.814378 11.1343C0.626841 11.2843 0.521484 11.4878 0.521484 11.7V14.1C0.521484 14.7365 0.837555 15.347 1.40016 15.7971C1.96277 16.2471 2.72584 16.5 3.52148 16.5H13.5215C14.3171 16.5 15.0802 16.2471 15.6428 15.7971C16.2054 15.347 16.5215 14.7365 16.5215 14.1V2.9C16.5215 2.26348 16.2054 1.65303 15.6428 1.20294C15.0802 0.752857 14.3171 0.5 13.5215 0.5Z" fill="#CF0026"/>
</svg>
