<svg width="198" height="63" viewBox="0 0 198 63" fill="none" xmlns="http://www.w3.org/2000/svg">
<rect x="9.07227" y="21.8682" width="3" height="3" rx="0.5" fill="white"/>
<rect x="17.0723" y="21.8682" width="3" height="3" rx="0.5" fill="white"/>
<rect x="25.0723" y="21.8682" width="3" height="3" rx="0.5" fill="white"/>
<rect x="33.0723" y="21.8682" width="3" height="3" rx="0.5" fill="white"/>
<rect x="41.0723" y="21.8682" width="3" height="3" rx="0.5" fill="white"/>
<path d="M51.5052 34.2196V19.6509C51.5052 16.8895 49.2666 14.6509 46.5052 14.6509H7C4.23858 14.6509 2 16.8895 2 19.6509V46.1792C2 48.9406 4.23858 51.1792 7 51.1792H26.7526" stroke="white" stroke-width="4" stroke-linecap="round"/>
<g filter="url(#filter0_f_409_187)">
<path d="M52.6568 41.0232C54.5916 41.9175 54.5916 44.6675 52.6568 45.5618L36.8679 52.8597C35.2112 53.6254 33.319 52.4155 33.319 50.5904V35.9946C33.319 34.1696 35.2112 32.9596 36.8679 33.7253L52.6568 41.0232Z" fill="#FB9722"/>
</g>
<path d="M52.4267 41.2393C54.5815 42.0328 54.6165 45.0679 52.4805 45.9108L38.2236 51.5368C36.615 52.1715 34.8632 51.0206 34.8072 49.2922L34.4508 38.2848C34.3934 36.5121 36.149 35.245 37.8134 35.858L52.4267 41.2393Z" fill="#FB9722"/>
<rect x="9.07227" y="41.7925" width="3" height="3" rx="0.5" fill="white"/>
<rect x="17.0723" y="41.7925" width="3" height="3" rx="0.5" fill="white"/>
<rect x="25.0723" y="41.7925" width="3" height="3" rx="0.5" fill="white"/>
<path d="M69.305 48.32C68.975 48.1733 68.5533 48.045 68.04 47.935C67.5267 47.8617 67.0683 47.77 66.665 47.66C65.8583 47.3667 65.2717 46.8533 64.905 46.12C64.5383 45.35 64.355 44.4333 64.355 43.37C64.355 42.4167 64.465 41.3717 64.685 40.235C64.9417 39.0617 65.2717 37.8517 65.675 36.605C65.3083 36.4583 64.9233 36.3483 64.52 36.275C64.1533 36.165 63.7683 36.0733 63.365 36C62.4483 35.78 61.99 35.34 61.99 34.68C61.99 34.1667 62.2467 33.6533 62.76 33.14C63.31 32.6267 63.97 32.3333 64.74 32.26C64.85 32.26 64.9417 32.26 65.015 32.26C65.125 32.2233 65.235 32.205 65.345 32.205C65.4917 32.205 65.6383 32.2233 65.785 32.26C65.9317 32.26 66.0783 32.2783 66.225 32.315H67.27C68.0767 30.3717 68.9017 28.52 69.745 26.76C70.625 24.9633 71.4317 23.405 72.165 22.085C72.935 20.7283 73.485 19.775 73.815 19.225C74.8783 17.465 75.96 16.1817 77.06 15.375C78.16 14.5317 79.6817 14.11 81.625 14.11C82.6883 14.11 83.5867 14.2017 84.32 14.385C85.09 14.5683 85.475 14.8067 85.475 15.1C85.475 15.21 85.3833 15.3383 85.2 15.485C84.65 15.8517 83.9717 16.585 83.165 17.685C82.3583 18.785 81.46 20.1233 80.47 21.7C79.5167 23.2767 78.5267 25 77.5 26.87C76.51 28.74 75.5383 30.6283 74.585 32.535L80.58 32.645C81.3867 30.665 82.23 28.7583 83.11 26.925C84.0267 25.055 84.87 23.4233 85.64 22.03C86.4467 20.6367 87.015 19.665 87.345 19.115C88.4083 17.3917 89.4533 16.145 90.48 15.375C91.5067 14.5683 92.9733 14.165 94.88 14.165C95.87 14.165 96.7317 14.2567 97.465 14.44C98.235 14.5867 98.62 14.8067 98.62 15.1C98.62 15.21 98.5283 15.3383 98.345 15.485C97.7583 15.925 96.97 16.8417 95.98 18.235C95.0267 19.5917 93.9633 21.2417 92.79 23.185C91.6533 25.1283 90.5167 27.2 89.38 29.4C88.28 31.6 87.2533 33.7633 86.3 35.89C85.3833 38.0167 84.6317 39.96 84.045 41.72C83.495 43.4433 83.22 44.8 83.22 45.79C83.22 46.3033 83.33 46.7067 83.55 47C83.6233 47.1467 83.66 47.2567 83.66 47.33C83.66 47.44 83.605 47.5133 83.495 47.55C83.385 47.6233 83.2383 47.605 83.055 47.495C82.7983 47.3483 82.45 47.2383 82.01 47.165C81.57 47.0917 81.1483 47 80.745 46.89C80.7083 46.9267 80.5983 46.9083 80.415 46.835C80.0117 46.6883 79.6633 46.4867 79.37 46.23C79.0767 45.9733 78.8383 45.68 78.655 45.35C77.7383 44.5067 76.62 43.4983 75.3 42.325C74.0167 41.115 72.77 40.0883 71.56 39.245C70.9367 40.8217 70.4233 42.2517 70.02 43.535C69.6533 44.8183 69.47 45.845 69.47 46.615C69.47 47.2017 69.58 47.605 69.8 47.825C69.8733 47.9717 69.91 48.0817 69.91 48.155C69.91 48.265 69.855 48.3383 69.745 48.375C69.635 48.4483 69.4883 48.43 69.305 48.32ZM78.105 42.875C78.0683 41.7017 78.215 40.3633 78.545 38.86C78.9117 37.3567 79.3883 35.8167 79.975 34.24C77.9217 34.24 75.8683 34.185 73.815 34.075L72.825 36.275C73.9617 37.4117 74.9883 38.585 75.905 39.795C76.8217 41.005 77.555 42.0317 78.105 42.875ZM121.621 48.32C121.328 48.1733 120.925 48.045 120.411 47.935C119.898 47.8617 119.44 47.77 119.036 47.66C118.23 47.3667 117.625 46.835 117.221 46.065C116.855 45.295 116.671 44.36 116.671 43.26C116.671 41.7933 116.91 40.125 117.386 38.255C117.9 36.385 118.541 34.46 119.311 32.48C120.118 30.4633 120.961 28.5383 121.841 26.705C122.721 24.8717 123.528 23.24 124.261 21.81C125.031 20.38 125.618 19.3167 126.021 18.62C124.811 18.8033 123.491 19.0967 122.061 19.5C120.668 19.8667 119.476 20.325 118.486 20.875C117.496 21.425 117.001 22.085 117.001 22.855C117.001 23.5883 117.46 24.3033 118.376 25C118.67 25.2567 118.816 25.495 118.816 25.715C118.816 26.045 118.651 26.2467 118.321 26.32C118.211 26.3567 118.046 26.375 117.826 26.375C117.166 26.375 116.525 26.1183 115.901 25.605C115.315 25.0917 114.82 24.4133 114.416 23.57C114.05 22.69 113.866 21.7733 113.866 20.82C113.866 19.4267 114.398 18.0517 115.461 16.695C116.525 15.3383 118.395 14.4033 121.071 13.89C121.731 13.7433 123.033 13.5967 124.976 13.45C126.92 13.2667 129.028 13.175 131.301 13.175C133.318 13.175 135.261 13.285 137.131 13.505C139.038 13.725 140.596 14.11 141.806 14.66C143.053 15.21 143.676 15.9983 143.676 17.025C143.676 17.2817 143.658 17.5933 143.621 17.96C143.585 18.3267 143.566 18.62 143.566 18.84V18.95C143.566 19.0967 143.511 19.1883 143.401 19.225C143.291 19.2617 143.2 19.2067 143.126 19.06C142.943 18.7667 142.411 18.5283 141.531 18.345C140.688 18.1617 139.606 18.0333 138.286 17.96C137.003 17.8867 135.61 17.8683 134.106 17.905C133.226 19.2617 132.2 20.9483 131.026 22.965C129.89 24.9817 128.735 27.1817 127.561 29.565C126.535 31.6917 125.581 33.855 124.701 36.055C123.821 38.2183 123.106 40.2167 122.556 42.05C122.043 43.8467 121.786 45.295 121.786 46.395C121.786 47.055 121.896 47.5317 122.116 47.825C122.19 47.8983 122.226 48.0083 122.226 48.155C122.226 48.4117 122.025 48.4667 121.621 48.32ZM145.499 47.33C143.886 47.33 142.731 46.7617 142.034 45.625C141.338 44.4883 141.008 43.1683 141.044 41.665C139.908 43.7917 138.734 45.24 137.524 46.01C136.351 46.7433 135.159 47.11 133.949 47.11C132.483 47.11 131.474 46.725 130.924 45.955C130.374 45.185 130.099 44.2683 130.099 43.205C130.099 42.3617 130.191 41.5183 130.374 40.675C130.594 39.795 130.833 38.9883 131.089 38.255C131.566 36.8617 132.079 35.45 132.629 34.02C133.216 32.5533 133.784 31.2333 134.334 30.06C134.884 28.8867 135.306 28.025 135.599 27.475C136.333 26.155 137.158 25.2567 138.074 24.78C138.991 24.2667 139.926 24.01 140.879 24.01C141.173 24.01 141.466 24.0283 141.759 24.065C142.089 24.1017 142.383 24.1567 142.639 24.23C143.116 24.34 143.483 24.45 143.739 24.56C143.996 24.6333 144.124 24.78 144.124 25C144.124 25.11 144.069 25.275 143.959 25.495C143.446 26.375 142.804 27.5117 142.034 28.905C141.301 30.2617 140.549 31.7283 139.779 33.305C139.009 34.8817 138.313 36.44 137.689 37.98C137.103 39.4833 136.681 40.84 136.424 42.05C136.388 42.2333 136.351 42.3983 136.314 42.545C136.314 42.6917 136.314 42.8383 136.314 42.985C136.314 43.6083 136.553 43.92 137.029 43.92C137.506 43.92 138.019 43.5533 138.569 42.82C139.119 42.0867 139.651 41.2067 140.164 40.18C140.714 39.1533 141.173 38.2183 141.539 37.375C141.943 36.495 142.199 35.945 142.309 35.725C142.933 34.4417 143.483 33.2133 143.959 32.04C144.473 30.83 145.023 29.6567 145.609 28.52C146.416 26.9067 147.241 25.715 148.084 24.945C148.928 24.175 149.808 23.7167 150.724 23.57C151.018 23.4967 151.293 23.46 151.549 23.46C151.843 23.46 152.118 23.46 152.374 23.46C152.998 23.46 153.548 23.4783 154.024 23.515C154.538 23.5517 154.904 23.5883 155.124 23.625C155.748 23.6617 156.059 23.845 156.059 24.175C156.059 24.5783 155.784 24.8167 155.234 24.89C154.868 24.9267 154.373 25.4033 153.749 26.32C153.163 27.2 152.539 28.245 151.879 29.455C150.853 31.3617 149.863 33.415 148.909 35.615C147.956 37.7783 147.278 39.96 146.874 42.16C146.838 42.4167 146.801 42.655 146.764 42.875C146.764 43.0583 146.764 43.2417 146.764 43.425C146.764 44.3417 147.003 44.8 147.479 44.8C148.066 44.8 148.671 44.4883 149.294 43.865C149.918 43.2417 150.523 42.49 151.109 41.61C151.623 40.84 152.136 39.9783 152.649 39.025C153.163 38.0717 153.621 37.1917 154.024 36.385C154.428 35.5417 154.721 34.955 154.904 34.625C155.014 34.405 155.161 34.295 155.344 34.295C155.564 34.295 155.766 34.46 155.949 34.79C156.133 35.0833 156.151 35.3767 156.004 35.67C155.308 37.0267 154.556 38.475 153.749 40.015C152.943 41.555 152.063 42.9483 151.109 44.195C149.496 46.285 147.626 47.33 145.499 47.33ZM159.872 47.495C157.635 47.495 155.93 47.0917 154.757 46.285C153.584 45.4783 152.997 44.085 152.997 42.105C152.997 40.8217 153.217 39.3917 153.657 37.815C154.097 36.2383 154.647 34.6617 155.307 33.085C155.967 31.4717 156.664 29.95 157.397 28.52C158.13 27.09 158.809 25.8617 159.432 24.835C160.055 23.7717 160.514 23.02 160.807 22.58C161.54 21.5533 162.347 20.5083 163.227 19.445C164.144 18.3817 165.152 17.4833 166.252 16.75C167.389 16.0167 168.617 15.65 169.937 15.65C170.634 15.65 171.349 15.7783 172.082 16.035C172.925 16.365 173.347 16.695 173.347 17.025C173.347 17.245 173.164 17.355 172.797 17.355C172.65 17.355 172.43 17.4467 172.137 17.63C171.88 17.7767 171.642 17.96 171.422 18.18C170.762 18.84 169.974 19.775 169.057 20.985C168.177 22.195 167.242 23.5333 166.252 25C165.299 26.4667 164.382 27.9883 163.502 29.565C162.659 31.105 161.944 32.5717 161.357 33.965C162.97 31.7283 164.4 29.785 165.647 28.135C166.93 26.4483 168.25 25.0917 169.607 24.065C170.01 23.7717 170.524 23.625 171.147 23.625C172.21 23.625 173.164 23.9 174.007 24.45C174.52 24.8167 174.777 25.5317 174.777 26.595C174.777 27.5117 174.612 28.6117 174.282 29.895C173.952 31.1783 173.512 32.5167 172.962 33.91C172.449 35.2667 171.88 36.5867 171.257 37.87L170.267 39.85C170.157 40.18 170.102 40.5283 170.102 40.895C170.102 41.3717 170.212 41.7933 170.432 42.16C170.652 42.5267 170.964 42.71 171.367 42.71C171.917 42.71 172.54 42.2333 173.237 41.28C173.75 40.6567 174.227 39.9417 174.667 39.135C175.144 38.2917 175.565 37.5033 175.932 36.77C176.299 36.0367 176.574 35.505 176.757 35.175C176.867 34.9183 177.069 34.79 177.362 34.79C177.619 34.79 177.839 34.8817 178.022 35.065C178.205 35.2483 178.224 35.4867 178.077 35.78C177.747 36.4033 177.325 37.1917 176.812 38.145C176.335 39.0983 175.785 40.0517 175.162 41.005C174.575 41.9217 173.934 42.6733 173.237 43.26C172.577 43.81 171.935 44.085 171.312 44.085C170.762 44.085 170.267 43.92 169.827 43.59C169.424 43.2233 169.13 42.7833 168.947 42.27C167.994 43.7733 166.82 45.02 165.427 46.01C164.034 47 162.182 47.495 159.872 47.495ZM158.937 45.24C159.45 45.24 160.092 44.7817 160.862 43.865C161.632 42.9117 162.42 41.72 163.227 40.29C164.034 38.8233 164.785 37.2833 165.482 35.67C166.179 34.0567 166.71 32.535 167.077 31.105C167.48 29.675 167.645 28.5567 167.572 27.75C167.095 28.2633 166.545 28.905 165.922 29.675C165.335 30.4083 164.73 31.215 164.107 32.095C164.034 32.205 163.777 32.6083 163.337 33.305C162.934 33.965 162.439 34.8083 161.852 35.835C161.265 36.825 160.697 37.87 160.147 38.97C159.597 40.07 159.139 41.0967 158.772 42.05C158.405 43.0033 158.222 43.7733 158.222 44.36C158.222 44.9467 158.46 45.24 158.937 45.24ZM183.101 47.825C180.424 47.825 178.481 47.22 177.271 46.01C176.098 44.8 175.511 43.205 175.511 41.225C175.511 39.7217 175.823 38.0717 176.446 36.275C176.923 34.8083 177.564 33.3233 178.371 31.82C179.178 30.28 180.113 28.8683 181.176 27.585C182.239 26.265 183.413 25.22 184.696 24.45C185.979 23.6433 187.336 23.24 188.766 23.24C190.599 23.24 192.084 23.5333 193.221 24.12C194.394 24.67 194.981 25.5867 194.981 26.87C194.981 27.8233 194.596 29.015 193.826 30.445C192.799 32.425 191.296 34.0567 189.316 35.34C187.336 36.6233 185.118 37.3567 182.661 37.54C182.111 39.0433 181.781 40.2717 181.671 41.225C181.634 41.4083 181.616 41.5917 181.616 41.775C181.616 41.9217 181.616 42.0867 181.616 42.27C181.616 43.48 181.891 44.36 182.441 44.91C182.991 45.4233 183.669 45.68 184.476 45.68C185.979 45.68 187.299 45.295 188.436 44.525C189.573 43.755 190.563 42.7833 191.406 41.61C192.286 40.4367 193.038 39.2633 193.661 38.09C194.028 37.43 194.339 36.825 194.596 36.275C194.853 35.6883 195.054 35.2667 195.201 35.01C195.384 34.7167 195.586 34.57 195.806 34.57C196.026 34.57 196.228 34.6983 196.411 34.955C196.594 35.175 196.613 35.4317 196.466 35.725C195.989 36.6783 195.329 37.9433 194.486 39.52C193.643 41.0967 192.689 42.49 191.626 43.7C190.453 45.0933 189.188 46.1383 187.831 46.835C186.511 47.495 184.934 47.825 183.101 47.825ZM183.376 35.945C185.026 35.3217 186.474 34.2033 187.721 32.59C189.004 30.9767 189.866 29.1983 190.306 27.255C190.343 27.0717 190.361 26.9067 190.361 26.76C190.398 26.6133 190.416 26.4667 190.416 26.32C190.416 25.5867 190.196 25.22 189.756 25.22C189.389 25.22 189.004 25.4767 188.601 25.99C188.014 26.6867 187.391 27.64 186.731 28.85C186.071 30.0233 185.484 31.1783 184.971 32.315C184.458 33.4517 184.073 34.3133 183.816 34.9L183.376 35.945Z" fill="white"/>
<path d="M97.0263 33.8C96.8063 33.8 96.733 33.635 96.8063 33.305C96.9163 32.975 97.0996 32.59 97.3563 32.15C97.613 31.71 97.888 31.325 98.1813 30.995C98.4746 30.665 98.713 30.5 98.8963 30.5H110.556C110.886 30.5 111.051 30.665 111.051 30.995C111.051 31.2883 110.923 31.655 110.666 32.095C110.446 32.535 110.19 32.9383 109.896 33.305C109.64 33.635 109.456 33.8 109.346 33.8H97.0263Z" fill="#FB9722"/>
<defs>
<filter id="filter0_f_409_187" x="29.3184" y="29.4917" width="28.7891" height="27.6016" filterUnits="userSpaceOnUse" color-interpolation-filters="sRGB">
<feFlood flood-opacity="0" result="BackgroundImageFix"/>
<feBlend mode="normal" in="SourceGraphic" in2="BackgroundImageFix" result="shape"/>
<feGaussianBlur stdDeviation="2" result="effect1_foregroundBlur_409_187"/>
</filter>
</defs>
</svg>
