<svg width="30" height="30" viewBox="0 0 30 30" fill="none" xmlns="http://www.w3.org/2000/svg">
<circle cx="15" cy="15" r="15" fill="white" fill-opacity="0.2"/>
<path d="M12.1069 7.2472C11.9075 7.10524 11.6729 7.02089 11.4287 7.00341C11.1846 6.98592 10.9403 7.03597 10.7228 7.14807C10.5052 7.26017 10.3226 7.42999 10.1952 7.63894C10.0677 7.84788 10.0002 8.08788 10 8.33265V20.9739V21.6674C10 21.7076 10.0019 21.7478 10.0055 21.7877C10.024 21.9902 10.0886 22.1865 10.1952 22.3611C10.2691 22.4822 10.3615 22.5902 10.4685 22.6814C10.546 22.7475 10.6313 22.8048 10.7228 22.8519C10.9403 22.964 11.1846 23.0141 11.4287 22.9966C11.6729 22.9791 11.9075 22.8948 12.1069 22.7528L21.4411 16.0854C21.614 15.9621 21.7549 15.7992 21.8521 15.6104C21.9493 15.4216 22 15.2124 22 15C22 14.7876 21.9493 14.5784 21.8521 14.3896C21.7549 14.2008 21.614 14.0379 21.4411 13.9146L12.1069 7.2472Z" fill="white"/>
</svg>
