<svg width="206" height="24" viewBox="0 0 206 24" fill="none" xmlns="http://www.w3.org/2000/svg">
<path d="M11 0L14.7391 6.75002L22 8.40325L17.05 14.2282L17.7984 22L11 18.85L4.20163 22L4.95 14.2282L0 8.40325L7.2609 6.75002L11 0Z" fill="#FB9722"/>
<path d="M47 0L50.7391 6.75002L58 8.40325L53.05 14.2282L53.7984 22L47 18.85L40.2016 22L40.95 14.2282L36 8.40325L43.2609 6.75002L47 0Z" fill="#FB9722"/>
<path d="M83 0L86.7391 6.75002L94 8.40325L89.05 14.2282L89.7984 22L83 18.85L76.2016 22L76.95 14.2282L72 8.40325L79.2609 6.75002L83 0Z" fill="#FB9722"/>
<path d="M119 0L122.739 6.75002L130 8.40325L125.05 14.2282L125.798 22L119 18.85L112.202 22L112.95 14.2282L108 8.40325L115.261 6.75002L119 0Z" fill="#FB9722"/>
<path d="M155 0L158.739 6.75002L166 8.40325L161.05 14.2282L161.798 22L155 18.85L148.202 22L148.95 14.2282L144 8.40325L151.261 6.75002L155 0Z" fill="#F2F2F2"/>
</svg>
