<svg width="20" height="21" viewBox="0 0 20 21" fill="none" xmlns="http://www.w3.org/2000/svg">
<path fill-rule="evenodd" clip-rule="evenodd" d="M16.6472 14.7888L19.4945 17.5958C20.1685 18.2601 20.1685 19.3373 19.4945 20.0017C18.8206 20.6661 17.7279 20.6661 17.054 20.0017L14.2067 17.1948C13.982 16.9733 13.982 16.6142 14.2067 16.3928L15.8337 14.7888C16.0584 14.5673 16.4226 14.5673 16.6472 14.7888ZM8.62868 0.5C13.3942 0.5 17.2574 4.30842 17.2574 9.00635C17.2574 13.7043 13.3942 17.5127 8.62868 17.5127C3.86319 17.5127 0 13.7043 0 9.00635C0 4.30842 3.86319 0.5 8.62868 0.5ZM8.62868 2.76836C5.13399 2.76836 2.30098 5.5612 2.30098 9.00635C2.30098 12.4515 5.13399 15.2443 8.62868 15.2443C12.1234 15.2443 14.9564 12.4515 14.9564 9.00635C14.9564 5.5612 12.1234 2.76836 8.62868 2.76836ZM10.7223 3.72307C12.3663 4.35658 13.6334 5.70849 14.1403 7.37852C14.3225 7.97862 13.9767 8.61067 13.3679 8.79024C12.7869 8.96166 12.1763 8.65884 11.9636 8.10903L11.9359 8.02883C11.6323 7.02876 10.8702 6.21554 9.8846 5.83576C9.2928 5.60771 9.00058 4.9499 9.23191 4.3665C9.46323 3.7831 10.1305 3.49502 10.7223 3.72307Z" fill="#F9F9F9"/>
</svg>
