<svg width="39" height="39" viewBox="0 0 39 39" fill="none" xmlns="http://www.w3.org/2000/svg">
<path fill-rule="evenodd" clip-rule="evenodd" d="M26.9065 17.2191C26.9065 18.554 26.6435 19.8759 26.1325 21.1092C25.6218 22.3425 24.8729 23.4631 23.9291 24.4071C22.9851 25.3509 21.8645 26.0998 20.6311 26.6108C19.3978 27.1215 18.076 27.3845 16.741 27.3845C15.4061 27.3845 14.0842 27.1215 12.8509 26.6108C11.6176 26.0998 10.4969 25.3509 9.553 24.4071C8.60904 23.4631 7.86028 22.3425 7.34941 21.1092C6.83854 19.8759 6.57562 18.554 6.57562 17.2191C6.57562 14.523 7.6466 11.9374 9.553 10.031C11.4594 8.12463 14.045 7.05365 16.741 7.05365C19.4371 7.05365 22.0227 8.12463 23.9291 10.031C25.8355 11.9374 26.9065 14.523 26.9065 17.2191ZM25.0541 27.9266C22.3306 30.041 18.9037 31.0379 15.471 30.7144C12.0384 30.3912 8.85796 28.7717 6.57732 26.1858C4.29665 23.6 3.08719 20.2422 3.19513 16.7961C3.30308 13.3499 4.72032 10.0744 7.15832 7.63635C9.59635 5.19835 12.8718 3.78111 16.318 3.67315C19.7642 3.56521 23.122 4.77468 25.7078 7.05534C28.2937 9.33599 29.9132 12.5164 30.2364 15.9491C30.5599 19.3817 29.563 22.8086 27.4486 25.5321L34.3159 32.3994C34.4824 32.5546 34.6159 32.7416 34.7085 32.9495C34.8011 33.1573 34.8508 33.3816 34.8549 33.6091C34.859 33.8366 34.8169 34.0624 34.7318 34.2734C34.6466 34.4844 34.5197 34.676 34.3588 34.8368C34.198 34.9979 34.0064 35.1246 33.7954 35.2098C33.5844 35.2949 33.3586 35.337 33.1311 35.3329C32.9036 35.3288 32.6791 35.2791 32.4715 35.1865C32.2636 35.0939 32.0766 34.9604 31.9214 34.7939L25.0541 27.9266Z" fill="#FB9722"/>
</svg>
