<svg width="24" height="24" viewBox="0 0 24 24" fill="none" xmlns="http://www.w3.org/2000/svg">
<path fill-rule="evenodd" clip-rule="evenodd" d="M14.1501 8.79942C14.1501 9.50201 14.0117 10.1977 13.7428 10.8469C13.474 11.496 13.0799 12.0858 12.5831 12.5826C12.0863 13.0794 11.4965 13.4735 10.8473 13.7424C10.1982 14.0112 9.50251 14.1496 8.79991 14.1496C8.09731 14.1496 7.40159 14.0112 6.75247 13.7424C6.10336 13.4735 5.51355 13.0794 5.01674 12.5826C4.51992 12.0858 4.12584 11.496 3.85696 10.8469C3.58808 10.1977 3.4497 9.50201 3.4497 8.79942C3.4497 7.38045 4.01337 6.01961 5.01674 5.01625C6.0201 4.01289 7.38094 3.44921 8.79991 3.44921C10.2189 3.44921 11.5797 4.01289 12.5831 5.01625C13.5865 6.01961 14.1501 7.38045 14.1501 8.79942ZM13.1752 14.435C11.7418 15.5478 9.93816 16.0725 8.13149 15.9022C6.32482 15.7321 4.65093 14.8798 3.45059 13.5188C2.25024 12.1578 1.61368 10.3906 1.67049 8.5768C1.72731 6.76301 2.47323 5.03906 3.75639 3.7559C5.03956 2.47274 6.7635 1.72682 8.57728 1.67C10.3911 1.61319 12.1583 2.24975 13.5193 3.4501C14.8803 4.65044 15.7326 6.32433 15.9027 8.131C16.073 9.93766 15.5483 11.7413 14.4355 13.1747L18.0498 16.7891C18.1375 16.8708 18.2077 16.9692 18.2565 17.0786C18.3052 17.188 18.3314 17.306 18.3335 17.4258C18.3357 17.5455 18.3136 17.6644 18.2687 17.7754C18.2239 17.8865 18.1571 17.9873 18.0724 18.0719C17.9878 18.1567 17.887 18.2234 17.7759 18.2682C17.6649 18.3131 17.546 18.3352 17.4263 18.333C17.3065 18.3309 17.1883 18.3047 17.0791 18.256C16.9697 18.2072 16.8713 18.137 16.7896 18.0493L13.1752 14.435Z" fill="#353535"/>
</svg>
