<svg width="20" height="20" viewBox="0 0 20 20" fill="none" xmlns="http://www.w3.org/2000/svg">
<rect width="20" height="20" rx="10" fill="#FB9722"/>
<path fill-rule="evenodd" clip-rule="evenodd" d="M7.86031 7.48323L4.52643 8.0864L4.47879 8.09689C4.01192 8.21843 3.83617 8.83172 4.17994 9.20162L6.53801 11.7391L6.05651 15.2415L6.05143 15.2905C6.01654 15.7932 6.52056 16.1586 6.96365 15.9307L10 14.3691L13.0364 15.9307L13.0794 15.9509C13.5258 16.141 14.0138 15.7526 13.9435 15.2415L13.4617 11.7391L15.8201 9.20162L15.8527 9.16384C16.1621 8.77853 15.9596 8.17434 15.4736 8.0864L12.1394 7.48323L10.5606 4.35357C10.3228 3.88214 9.6772 3.88214 9.43936 4.35357L7.86031 7.48323Z" fill="white"/>
</svg>
