<svg width="13" height="14" viewBox="0 0 13 14" fill="none" xmlns="http://www.w3.org/2000/svg">
<path d="M6.5 0.90625C3.13379 0.90625 0.40625 3.63379 0.40625 7C0.40625 10.3662 3.13379 13.0938 6.5 13.0938C9.86621 13.0938 12.5938 10.3662 12.5938 7C12.5938 3.63379 9.86621 0.90625 6.5 0.90625ZM7.77148 9.37598C7.99121 9.5957 7.99121 9.95605 7.77148 10.1758C7.66016 10.2871 7.5166 10.3398 7.37305 10.3398C7.22949 10.3398 7.08301 10.2842 6.97168 10.1729L4.21777 7.41016C4.01563 7.1875 4.02148 6.84473 4.23535 6.63086L7.03027 3.82715C7.25 3.60742 7.60742 3.60449 7.83008 3.82715C8.0498 4.04687 8.05273 4.4043 7.83008 4.62695L5.43066 7L7.77148 9.37598Z" fill="white"/>
</svg>
