<svg width="13" height="14" viewBox="0 0 13 14" fill="none" xmlns="http://www.w3.org/2000/svg">
<path d="M0.40625 7C0.40625 10.3662 3.13379 13.0938 6.5 13.0938C9.86621 13.0938 12.5938 10.3662 12.5938 7C12.5938 3.63379 9.86621 0.90625 6.5 0.90625C3.13379 0.90625 0.40625 3.63379 0.40625 7ZM7.56934 7L5.16992 4.62402C4.9502 4.4043 4.9502 4.04395 5.16992 3.82422C5.38965 3.60449 5.75 3.60449 5.96973 3.82422L8.76465 6.62793C8.97852 6.8418 8.98437 7.1875 8.78223 7.40723L6.02832 10.1699C5.91699 10.2813 5.77344 10.3369 5.62695 10.3369C5.4834 10.3369 5.33691 10.2812 5.22852 10.1729C5.00879 9.95312 5.00586 9.5957 5.22852 9.37305L7.56934 7Z" fill="white"/>
</svg>
